<svg width="46" height="46" viewBox="0 0 46 46" fill="none" xmlns="http://www.w3.org/2000/svg">
<g clip-path="url(#clip0_2599_2708)">
<mask id="mask0_2599_2708" style="mask-type:luminance" maskUnits="userSpaceOnUse" x="0" y="0" width="46" height="46">
<path d="M0 3.8147e-06H46V46H0V3.8147e-06Z" fill="white"/>
</mask>
<g mask="url(#mask0_2599_2708)">
<path d="M35.5781 23H44.2031V30.1875H1.79688V23H10.4219" stroke="white" stroke-width="3" stroke-miterlimit="10"/>
<path d="M30.1875 23C30.1875 26.9696 26.9696 30.1875 23 30.1875C19.0304 30.1875 15.8125 26.9696 15.8125 23C15.8125 19.0304 19.0304 15.8125 23 15.8125C26.9696 15.8125 30.1875 19.0304 30.1875 23Z" stroke="white" stroke-width="3" stroke-miterlimit="10"/>
<path d="M5.03125 23C5.03125 14.3069 11.2044 7.05552 19.4062 5.39072" stroke="white" stroke-width="3" stroke-miterlimit="10"/>
<path d="M26.5938 5.39072C34.7955 7.05561 40.9687 14.3069 40.9687 23" stroke="white" stroke-width="3" stroke-miterlimit="10"/>
<path d="M8.625 30.1875V33.4219C8.625 39.3762 13.4519 44.2031 19.4062 44.2031H26.5937C32.5481 44.2031 37.375 39.3762 37.375 33.4219V30.1875" stroke="white" stroke-width="3" stroke-miterlimit="10"/>
<path d="M19.4062 10.4219V1.79688H26.5937V10.4219" stroke="white" stroke-width="3" stroke-miterlimit="10"/>
<path d="M24.7969 23C24.7969 23.9924 23.9924 24.7969 23 24.7969C22.0076 24.7969 21.2031 23.9924 21.2031 23C21.2031 22.0076 22.0076 21.2031 23 21.2031C23.9924 21.2031 24.7969 22.0076 24.7969 23Z" fill="white"/>
</g>
</g>
<defs>
<clipPath id="clip0_2599_2708">
<rect width="46" height="46" fill="white"/>
</clipPath>
</defs>
</svg>
