<svg width="46" height="46" viewBox="0 0 46 46" fill="none" xmlns="http://www.w3.org/2000/svg">
<g clip-path="url(#clip0_2599_2760)">
<path d="M7.1875 30.5469V44.2031M14.375 44.2031H0M7.1875 21.5625V14.375M7.1875 5.39062V0M38.8125 30.5469V44.2031M31.625 44.2031H46M38.8125 21.5625V14.375M38.8125 5.39062V0M8.98438 14.375L14.7203 5.39062M31.2797 14.375L37.0156 5.39062M20.1321 14.375L25.868 5.39062M8.98438 30.5469L14.7203 21.5625M31.2797 30.5469L37.0156 21.5625M20.1321 30.5469L25.868 21.5625M44.2031 30.5469H1.79688V21.5625H44.2031V30.5469ZM44.2031 5.39062H1.79688V14.375H44.2031V5.39062Z" stroke="white" stroke-width="3" stroke-miterlimit="10"/>
</g>
<defs>
<clipPath id="clip0_2599_2760">
<rect width="46" height="46" fill="white"/>
</clipPath>
</defs>
</svg>
