<svg width="46" height="46" viewBox="0 0 46 46" fill="none" xmlns="http://www.w3.org/2000/svg">
<g clip-path="url(#clip0_2599_3195)">
<mask id="mask0_2599_3195" style="mask-type:luminance" maskUnits="userSpaceOnUse" x="0" y="0" width="46" height="47">
<path d="M0 0.00195694H46V46.002H0V0.00195694Z" fill="white"/>
</mask>
<g mask="url(#mask0_2599_3195)">
<path d="M30.1875 10.4238L15.8125 3.23633L3.75071 9.42189C2.5512 10.037 1.79688 11.2716 1.79688 12.6196V36.8859C1.79688 38.1379 2.44851 39.2997 3.51693 39.9525C4.58526 40.6053 5.91639 40.655 7.03045 40.0837L15.8125 35.5801L30.1875 42.7676L42.2493 36.582C43.4488 35.9669 44.2031 34.7323 44.2031 33.3843V9.11804C44.2031 7.86598 43.5515 6.70421 42.4831 6.05141C41.4147 5.3986 40.0836 5.34892 38.9695 5.92023L30.1875 10.4238Z" stroke="#FF602F" stroke-width="3" stroke-miterlimit="10" stroke-linecap="square"/>
<path d="M15.8125 3.23633V35.5801" stroke="#FF602F" stroke-width="3" stroke-miterlimit="10"/>
<path d="M30.1875 10.4238V42.7676" stroke="#FF602F" stroke-width="3" stroke-miterlimit="10"/>
</g>
</g>
<defs>
<clipPath id="clip0_2599_3195">
<rect width="46" height="46" fill="white"/>
</clipPath>
</defs>
</svg>
