<svg width="46" height="46" viewBox="0 0 46 46" fill="none" xmlns="http://www.w3.org/2000/svg">
<g clip-path="url(#clip0_2599_3230)">
<mask id="mask0_2599_3230" style="mask-type:luminance" maskUnits="userSpaceOnUse" x="0" y="0" width="46" height="47">
<path d="M0 0.00195694H46V46.002H0V0.00195694Z" fill="white"/>
</mask>
<g mask="url(#mask0_2599_3230)">
<path d="M12.8955 1.34961C9.83322 1.34961 6.89569 2.56628 4.72973 4.73187C2.5645 6.89755 1.34766 9.83482 1.34766 12.8975C1.34766 30.4363 15.5653 44.6543 33.1045 44.6543C36.1668 44.6543 39.1043 43.4376 41.2702 41.272C43.4355 39.1064 44.6523 36.1691 44.6523 33.1064L30.2174 27.3324L27.3305 34.5498H27.3289C18.5605 34.5498 11.4521 27.4416 11.4521 18.6729V18.6715L18.6695 15.7845L12.8955 1.34961Z" stroke="#FF602F" stroke-width="3" stroke-miterlimit="10" stroke-linecap="round" stroke-linejoin="round"/>
</g>
</g>
<defs>
<clipPath id="clip0_2599_3230">
<rect width="46" height="46" fill="white"/>
</clipPath>
</defs>
</svg>
