<svg width="70" height="70" viewBox="0 0 70 70" fill="none" xmlns="http://www.w3.org/2000/svg">
<g clip-path="url(#clip0_2134_1927)">
<mask id="mask0_2134_1927" style="mask-type:luminance" maskUnits="userSpaceOnUse" x="0" y="0" width="70" height="70">
<path d="M0 7.62939e-06H70V70H0V7.62939e-06Z" fill="white"/>
</mask>
<g mask="url(#mask0_2134_1927)">
<path d="M20.0801 42.1858L4.33614 57.9298C2.20045 60.0655 2.20045 63.5282 4.33614 65.6639C6.47182 67.7995 9.93436 67.7995 12.07 65.6639L27.814 49.9197L20.0801 42.1858Z" stroke="#FF602F" stroke-width="4" stroke-miterlimit="10"/>
<path d="M67.2656 53.5938C67.2656 46.0429 61.1446 39.9219 53.5937 39.9219C51.8343 39.9219 50.1658 40.2827 48.621 40.8878L29.1122 21.379C29.7173 19.8342 30.0781 18.1657 30.0781 16.4063C30.0781 8.85542 23.9571 2.73438 16.4062 2.73438C8.85541 2.73438 2.73438 8.85542 2.73438 16.4063C2.73438 23.9568 8.85541 30.0781 16.4062 30.0781C18.1657 30.0781 19.8342 29.7173 21.379 29.1122L40.8878 48.621C40.2827 50.1658 39.9219 51.8343 39.9219 53.5938C39.9219 61.1443 46.0429 67.2656 53.5937 67.2656C61.1446 67.2656 67.2656 61.1443 67.2656 53.5938Z" stroke="#FF602F" stroke-width="4" stroke-miterlimit="10"/>
<path d="M6.73877 6.73873L16.4063 16.4062" stroke="#FF602F" stroke-width="4" stroke-miterlimit="10"/>
<path d="M63.2611 63.2612L53.5938 53.5938" stroke="#FF602F" stroke-width="4" stroke-miterlimit="10"/>
<path d="M61.0791 3.45215L66.5479 8.9209L62.4463 15.7568L52.876 17.124L54.2432 7.55371L61.0791 3.45215Z" stroke="#FF602F" stroke-width="4" stroke-miterlimit="10"/>
<path d="M23.947 46.0527L31.1334 38.8664" stroke="#FF602F" stroke-width="4" stroke-miterlimit="10"/>
<path d="M38.8665 31.1333L52.8759 17.1239" stroke="#FF602F" stroke-width="4" stroke-miterlimit="10"/>
</g>
</g>
<defs>
<clipPath id="clip0_2134_1927">
<rect width="70" height="70" fill="white"/>
</clipPath>
</defs>
</svg>
