<svg width="70" height="70" viewBox="0 0 70 70" fill="none" xmlns="http://www.w3.org/2000/svg">
<g clip-path="url(#clip0_2134_2023)">
<mask id="mask0_2134_2023" style="mask-type:luminance" maskUnits="userSpaceOnUse" x="0" y="0" width="70" height="70">
<path d="M70 0H0V70H70V0Z" fill="white"/>
</mask>
<g mask="url(#mask0_2134_2023)">
<mask id="mask1_2134_2023" style="mask-type:luminance" maskUnits="userSpaceOnUse" x="0" y="0" width="70" height="70">
<path d="M0 7.62939e-06H70V70H0V7.62939e-06Z" fill="white"/>
</mask>
<g mask="url(#mask1_2134_2023)">
<path d="M2.73438 35C2.73438 17.1802 17.1802 2.73438 35 2.73438C52.8198 2.73438 67.2656 17.1802 67.2656 35C67.2656 52.8198 52.8198 67.2656 35 67.2656C17.1802 67.2656 2.73438 52.8198 2.73438 35Z" stroke="#FF602F" stroke-width="4" stroke-miterlimit="10"/>
<path d="M51.4062 19.4141C51.4062 26.7567 44.539 33.1194 29.8047 39.2383C23.9701 41.6613 13.6719 45.5273 13.6719 56.3281V57.2852" stroke="#FF602F" stroke-width="4" stroke-miterlimit="10" stroke-linecap="square" stroke-linejoin="round"/>
<path d="M51.4062 19.6152C51.4062 34.8633 48.5351 54.2773 30.0441 54.2773C22.5586 54.2773 19.0039 47.3047 18.7 45.2914" stroke="#FF602F" stroke-width="4" stroke-miterlimit="10" stroke-linejoin="round"/>
<path d="M18.7 45.2913C17.2266 44.0235 15.4492 41.836 15.4492 37.7344C15.4492 30.1376 22.7309 25.0196 30.3506 25.0196C41.6946 25.0196 47.1801 22.7364 50.8594 18.4571" stroke="#FF602F" stroke-width="4" stroke-miterlimit="10" stroke-linejoin="round"/>
</g>
</g>
</g>
<defs>
<clipPath id="clip0_2134_2023">
<rect width="70" height="70" fill="white"/>
</clipPath>
</defs>
</svg>
