<svg width="90" height="90" viewBox="0 0 90 90" fill="none" xmlns="http://www.w3.org/2000/svg">
<g clip-path="url(#clip0_2289_418)">
<mask id="mask0_2289_418" style="mask-type:luminance" maskUnits="userSpaceOnUse" x="0" y="0" width="91" height="91">
<path d="M0.000305176 0.000984192H90.0003V90.001H0.000305176V0.000984192Z" fill="white"/>
</mask>
<g mask="url(#mask0_2289_418)">
<path d="M31.6409 86.4854H3.51593V30.9385H31.6409V86.4854Z" stroke="#FF602F" stroke-width="4" stroke-miterlimit="10"/>
<path d="M17.5786 69.6108V86.4858" stroke="#FF602F" stroke-width="4" stroke-miterlimit="10"/>
</g>
<path d="M17.5782 55.5469V62.5781" stroke="#FF602F" stroke-width="4" stroke-miterlimit="10"/>
<path d="M17.5782 41.4844V48.5156" stroke="#FF602F" stroke-width="4" stroke-miterlimit="10"/>
<mask id="mask1_2289_418" style="mask-type:luminance" maskUnits="userSpaceOnUse" x="0" y="0" width="91" height="91">
<path d="M0.000305176 0.000984192H90.0003V90.001H0.000305176V0.000984192Z" fill="white"/>
</mask>
<g mask="url(#mask1_2289_418)">
<path d="M72.4223 52.0327V24.6108H86.4848V52.0327" stroke="#FF602F" stroke-width="4" stroke-miterlimit="10"/>
<path d="M79.4535 24.6108V17.5796C79.4535 13.6964 76.3057 10.5483 72.4223 10.5483H33.7504" stroke="#FF602F" stroke-width="4" stroke-miterlimit="10"/>
<path d="M44.2973 52.0327V24.6108H58.3598V52.0327" stroke="#FF602F" stroke-width="4" stroke-miterlimit="10"/>
<path d="M31.6411 52.0327H86.4848V86.4858H31.6411" stroke="#FF602F" stroke-width="4" stroke-miterlimit="10"/>
<path d="M40.7817 66.0952H54.8442" stroke="#FF602F" stroke-width="4" stroke-miterlimit="10"/>
<path d="M61.8754 66.0952H75.9379" stroke="#FF602F" stroke-width="4" stroke-miterlimit="10"/>
<path d="M16.1723 0.00146693C16.1723 5.82633 20.8943 10.5483 26.7192 10.5483H44.2973C48.1805 10.5483 51.3285 13.6964 51.3285 17.5796V24.6108" stroke="#FF602F" stroke-width="4" stroke-miterlimit="10"/>
</g>
</g>
<defs>
<clipPath id="clip0_2289_418">
<rect width="90" height="90" fill="white"/>
</clipPath>
</defs>
</svg>
