<svg width="42" height="42" viewBox="0 0 42 42" fill="none" xmlns="http://www.w3.org/2000/svg">
<g clip-path="url(#clip0_2599_605)">
<path d="M6.5625 27.8906V40.3594M13.125 40.3594H0M6.5625 19.6875V13.125M6.5625 4.92188V0M35.4375 27.8906V40.3594M28.875 40.3594H42M35.4375 19.6875V13.125M35.4375 4.92188V0M8.20312 13.125L13.4402 4.92188M28.5598 13.125L33.7969 4.92188M18.3815 13.125L23.6186 4.92188M8.20312 27.8906L13.4402 19.6875M28.5598 27.8906L33.7969 19.6875M18.3815 27.8906L23.6186 19.6875M40.3594 27.8906H1.64062V19.6875H40.3594V27.8906ZM40.3594 4.92188H1.64062V13.125H40.3594V4.92188Z" stroke="white" stroke-width="3" stroke-miterlimit="10"/>
</g>
<defs>
<clipPath id="clip0_2599_605">
<rect width="42" height="42" fill="white"/>
</clipPath>
</defs>
</svg>
