<svg width="162" height="30" viewBox="0 0 162 30" fill="none" xmlns="http://www.w3.org/2000/svg">
<path d="M16.3131 12.667H25.0001L14.2754 29.0003H5.58838L16.3131 12.667Z" fill="#FF602F"/>
<path d="M10.7247 1H19.4118L8.68705 17.3333H0L10.7247 1Z" fill="#FF602F"/>
<path d="M33.0504 0.704731H38.9555V29H33.0504V0.704731ZM43.062 0.704731H51.5506L59.7111 22.9719V0.704731H65.0831V29H56.8406L48.434 6.40479V29H43.062V0.704731ZM88.1999 7.01991L82.6228 29H74.1753L68.5982 7.01991C68.0651 5.09255 68.0241 4.2724 68.0241 2.22201V0.704731H73.9702V3.04217C73.9702 4.39542 74.2573 5.46162 74.5033 6.56882L78.5221 24.4071L82.5408 6.56882C82.7869 5.46162 83.0739 4.39542 83.0739 3.04217V0.704731H88.774V2.22201C88.774 4.2724 88.733 5.09255 88.1999 7.01991ZM91.7185 0.704731H97.6236V29H91.7185V0.704731ZM101.033 14.9754C101.033 4.92852 104.396 0.212641 112.105 0.212641C115.55 0.212641 117.764 0.663724 119.281 1.0738L118.174 5.87169C116.411 5.50263 114.525 5.21557 112.269 5.21557C108.906 5.25658 107.143 7.59401 107.143 14.6883C107.143 21.9467 108.742 24.4071 112.597 24.4071C114.935 24.4071 116.698 24.0791 118.584 23.505L119.568 28.2619C117.723 28.918 115.263 29.4921 111.449 29.4921C104.027 29.4921 101.033 25.3093 101.033 14.9754ZM127.282 5.66666H120.474V0.704731H139.994V5.66666H133.187V29H127.282V5.66666ZM145.085 26.6626V29H139.426V27.4827C139.426 25.4323 139.508 24.6122 140 22.6848L145.659 0.704731H154.435L160.094 22.6848C160.545 24.6122 160.668 25.4323 160.668 27.4827V29H154.763V26.6626C154.763 25.3093 154.476 24.2431 154.23 23.1359L154.107 22.5208H145.741L145.618 23.1359C145.372 24.2431 145.085 25.3093 145.085 26.6626ZM146.848 17.8049H153L149.924 4.43643L146.848 17.8049Z" fill="white"/>
</svg>
